CalibrationMatrices=Corners=DataRate=2000.000000
Origins=Types=events=DataType=double
version=2
endheader
time	f1_x	f1_y	f1_z	p1_x	p1_y	p1_z	m1_x	m1_y	m1_z	f2_x	f2_y	f2_z	p2_x	p2_y	p2_z	m2_x	m2_y	m2_z
3.747	2.498160123825073	13.50487518310547	-0.8007479906082161	833.9900360213089	3.589264660153027e-14	586.1714026692451	114.9655808007496	621.4957176924609	-36.8505032713238	2.330120086669922	19.16860008239746	-1.333500027656556	276.7069428574019	3.380507437052406e-14	552.0787608975987	113.1824748326762	931.0891781136424	-64.77298495602867
3.7475	2.319720029830933	13.68026351928711	-0.9342060089111337	832.6802971901604	3.539031106137111e-14	577.9676407272892	108.0420485329422	637.1646906036243	-43.51108308613406	2.106070041656494	20.91120147705078	-1.200150012969972	284.4253497027563	3.37416997084428e-14	551.0437741222217	82.27843256863343	816.9438084335359	-46.88659919245958
3.748	2.141280174255371	13.50487518310547	-0.6672900319099434	829.3416355033728	3.526222825105297e-14	575.8758896949538	95.70400914058069	603.5971908327141	-29.82436959027817	2.419739961624146	21.0854606628418	-0.8445500135421766	285.8859137862575	3.362937758567246e-14	549.2094146506004	95.39558249088077	831.2710596680141	-33.29545395880483
3.7485	2.230499982833862	13.50487518310547	-0.8007479906082161	824.3987618077879	3.519804132512473e-14	574.827637644274	99.44239314727145	602.0879254421554	-35.6997521213971	2.285310029983521	20.38842010498047	-0.8445500135421765	281.5766981145479	3.340891093365177e-14	545.6089209870528	105.7593656114555	943.533414649271	-39.08400719705008
3.749	2.364330053329468	13.32948780059814	-0.8007479906082161	822.8227297579448	3.530948312103941e-14	576.6476202873065	107.117410735744	603.9005500196952	-36.2783746224491	1.882019996643066	20.56268119812012	-0.6667500138282788	289.4396985244265	3.257723633090502e-14	532.0266439856219	75.54590594086335	825.4037589695993	-26.7639206387738
3.7495	2.230499982833862	13.85565185546875	-0.7562620043754587	828.3141004695472	3.5146796308841e-14	573.9907430176859	99.75408866276575	619.6628264102492	-33.82211504924707	1.613160014152527	20.21416091918945	-0.6223000288009656	291.3862514686047	3.284734876136177e-14	536.4379147396845	69.25976799753153	867.8792452361499	-26.71796674941441
3.75	2.141280174255371	13.85565185546875	-0.8452340364456186	828.6897844334885	3.562698704092792e-14	581.8328527985834	90.3167804780748	584.4157537423495	-35.65101748013993	1.657970070838928	20.56268119812012	-0.4889500141143812	289.7522825820158	3.265198013870278e-14	533.2473030009364	69.12995228558702	857.3720328802489	-20.387033361019
3.7505	2.230499982833862	13.85565185546875	-0.8452340364456186	825.4114860000192	3.548887759030144e-14	579.5773543034642	104.956125639481	651.9773809241964	-39.77246823882165	1.478730082511902	20.73694038391113	-0.5778499841690076	289.1481908511603	3.293246370083973e-14	537.8279471888319	62.37907205266811	874.7716122488953	-24.37614966003883
3.751	2.141280174255371	13.68026351928711	-0.8452340364456186	829.4536205708968	3.502332753115514e-14	571.9743448566517	98.25591725804816	627.7398243257925	-38.78485709025293	1.568350076675415	20.21416091918945	-0.6223000288009656	285.7365630742951	3.259485269177836e-14	532.3143409915767	69.25931066769817	892.6698648536058	-27.48115466325418
3.7515	2.364330053329468	13.68026351928711	-0.6228040456771859	829.5276449687522	3.579489623393882e-14	584.5750180192464	95.48895802541705	552.5092011287892	-25.15338723203266	2.285310029983521	20.56268119812012	-0.6223000288009656	287.1043832685589	3.231329250294521e-14	527.7161141554117	114.4817881703357	1030.080156412871	-31.17389725721348
3.752	2.542770147323608	12.45254707336426	-0.4003739953041084	828.8608857621792	3.533305394966919e-14	577.0325611314125	111.3781059341997	545.4449386813809	-17.53713260682096	2.8230299949646	19.51712036132812	-0.8445500135421765	271.8767143779729	3.248651872120463e-14	530.5451129880551	159.2532018490679	1101.00279272949	-47.64288513340848
3.7525	2.676599979400635	13.32948780059814	-0.4003739953041085	832.5609275868322	3.545950835271367e-14	579.0977182547974	109.0348783955212	542.9945051924623	-16.3097699419723	2.195690155029297	18.64582061767578	-0.8445500135421764	267.4527342381787	3.199434937338912e-14	522.507377566574	119.9406345472355	1018.536951315939	-46.13395214215615
3.753	2.408940076828003	13.32948780059814	-0.4893460273742684	831.968126231441	3.503557239535941e-14	572.174318664819	105.1647887370013	581.9126768683118	-21.36291063573029	2.106070041656494	19.16860008239746	-0.8000999689102185	274.4747026010352	3.220590806043475e-14	525.9623931219641	101.5023968907915	923.8338777536774	-38.56095143576471
3.7535	2.319720029830933	13.1540994644165	-0.4448600113391885	822.1041279290529	3.560486585964896e-14	581.4715864923414	98.29854959481912	557.4073086192083	-18.85102224623373	1.837210059165955	18.99434089660645	-0.8000999689102184	275.1027460028184	3.266825873708745e-14	533.513152687491	92.78887626123742	959.3152064054603	-40.40930248636522
3.754	2.275110006332397	14.38181591033936	-0.7117760181427011	835.9618032692254	3.567762377040772e-14	582.6598133477812	91.86377893003595	580.7050884232553	-28.73990031091675	1.882019996643066	19.69138145446777	-0.8000999689102185	277.3337492081359	3.268436401306517e-14	533.7761718043324	86.60960856518659	906.1874172013263	-36.82019598300491
3.7545	2.453550100326538	13.85565185546875	-0.7562620043754587	830.7251822865047	3.614294854388858e-14	590.2591436004684	95.7080305999018	540.4809755416458	-29.50025232689407	2.778219938278198	20.73694038391113	-0.4000499844551099	283.9830955229737	3.31471741257359e-14	541.3344345294374	145.2523301920082	1084.179430978595	-20.9156199747792
3.755	2.498160123825073	14.55720329284668	-0.8452340364456186	833.7682504312963	3.675760408819947e-14	600.2972304143782	109.1229168339489	635.8777682464631	-36.92093336397219	2.374930143356323	21.43398094177246	-0.4889500141143812	296.8285267099	3.356776275659567e-14	548.203168129241	114.7805314019674	1035.905721032894	-23.63098662335177
3.7555	2.319720029830933	14.55720329284668	-1.023177981376649	837.680015246152	3.719998745294046e-14	607.5218990298353	92.83299440313073	582.5654623970138	-40.94661191741651	2.330120086669922	20.91120147705078	-0.6667500138282789	308.4659061323632	3.338855282028434e-14	545.2764477648699	117.1921361019333	1051.717627590513	-33.53383321895657
3.756	1.96284008026123	16.13569450378418	-1.468038082122804	840.4525008733484	3.758504399782014e-14	613.8103496287797	80.04594597672161	658.0245347215939	-59.86758584924182	1.478730082511902	22.82806015014648	-0.3111500144004836	315.7821776213065	3.439786405100383e-14	561.759751055618	57.07992294946439	881.1776603899649	-12.01058871916294
3.7565	1.382910013198853	15.60953140258789	-2.001870155334474	822.0492706070467	3.652474006645687e-14	596.4942723385522	63.46734722329424	716.3846816246214	-91.87393758952685	0.4032900035381317	26.13899993896484	0.400049984455107	314.7953084168915	3.426953624030472e-14	559.6639988634194	9.580627415297386	620.9626254721411	9.503656958850362
3.757	2.141280174255371	13.1540994644165	-1.023177981376649	830.5856313239924	3.535198514730141e-14	577.341731051187	113.8724812132034	699.5301045363052	-54.41222352072286	1.792400002479553	21.78250122070312	-0.3555999994277967	293.9849874660354	3.336175068372478e-14	544.8387356575386	69.39592071893935	843.347871948779	-13.76767983363566
3.7575	2.275110006332397	13.32948780059814	-0.9342060089111336	832.3854056102695	3.555425038440315e-14	580.6449730511263	109.4587888512577	641.3006784727406	-44.94598414510237	1.882019996643066	19.86564064025879	-0.7556499838829053	295.2243015374071	3.246097245979596e-14	530.1279108784109	86.81735920050778	916.399646278916	-34.85804412154826
3.758	2.275110006332397	13.85565185546875	-1.023177981376649	830.909675372742	3.573310078756668e-14	583.5658217936054	107.5952238921732	655.2658813911246	-48.3884575608859	1.657970070838928	19.86564064025879	-1.111250042915345	296.4478404045652	3.311152638217137e-14	540.7522626968838	69.16826214722619	828.767577711905	-46.35984426461487
